<svg width="24" height="24" viewBox="0 0 24 24" fill="none" xmlns="http://www.w3.org/2000/svg">
<circle cx="12" cy="12" r="12" fill="#C89126"/>
<path d="M12.0039 14.978C12.3989 14.978 12.675 14.7172 12.6823 14.3145L12.7491 5.63019C12.7491 5.20526 12.3989 4.91455 11.9963 4.91455C11.6012 4.91455 11.251 5.20526 11.251 5.63019L11.3328 14.3145C11.3404 14.7172 11.6159 14.978 12.0039 14.978ZM11.9963 19.0855C12.1359 19.0864 12.2743 19.0597 12.4036 19.0069C12.5328 18.9541 12.6504 18.8763 12.7495 18.778C12.8486 18.6796 12.9272 18.5626 12.9809 18.4337C13.0346 18.3048 13.0623 18.1666 13.0624 18.027C13.0624 17.4382 12.5926 16.9684 11.9963 16.9684C11.8572 16.9684 11.7195 16.9957 11.5911 17.0488C11.4626 17.102 11.3459 17.18 11.2476 17.2783C11.1493 17.3766 11.0713 17.4933 11.0181 17.6218C10.965 17.7502 10.9377 17.8879 10.9377 18.027C10.9388 18.3074 11.0506 18.576 11.2489 18.7743C11.4472 18.9726 11.7158 19.0845 11.9963 19.0855Z" fill="#F8F8F8"/>
</svg>
